inDegrees=yes
name=ik_S56_A02_T02
DataType=double
version=3
OpenSimVersion=4.3-2021-08-27-4bc7ad9
endheader
time	pelvis_tilt	pelvis_list	pelvis_rotation	pelvis_tx	pelvis_ty	pelvis_tz	hip_flexion_r	hip_adduction_r	hip_rotation_r	knee_angle_r	knee_angle_r_beta	ankle_angle_r	subtalar_angle_r	mtp_angle_r	hip_flexion_l	hip_adduction_l	hip_rotation_l	knee_angle_l	knee_angle_l_beta	ankle_angle_l	subtalar_angle_l	mtp_angle_l	lumbar_extension	lumbar_bending	lumbar_rotation	arm_flex_r	arm_add_r	arm_rot_r	elbow_flex_r	pro_sup_r	wrist_flex_r	wrist_dev_r	arm_flex_l	arm_add_l	arm_rot_l	elbow_flex_l	pro_sup_l	wrist_flex_l	wrist_dev_l
19.91999999999966	-2.446113192960678	2.556316178383922	-48.74503406235652	0	0.9399999999999999	0	5.861166213211454	4.381659003832199	7.472433219910371	9.56151290675643	0.1668798816948333	0	0	0	11.48850807742344	-1.626121041731983	6.570785418755678	25.7785322972249	0.449920264918272	0	0	0	0	0	0	32.04188080470383	-32.04188080470383	4.428943267627115	77.48325613444206	85.57105698031549	0	0	32.04188080470383	-32.04188080470383	4.428943267627115	77.48325613444206	85.5710569802084	0	0
19.93999999999966	-2.231158584157799	2.646635888848865	-51.76125343898133	0	0.9399999999999999	0	5.537159930122534	4.292581443925776	10.33227218075282	9.342772976469602	0.1630621497057453	0	0	0	11.12584761937633	-1.76754219568131	6.734004598467206	25.75244665886934	0.4494649846414829	0	0	0	0	0	0	32.08439031875734	-32.08439031875734	4.432206951120095	77.52636776140845	85.56779329698529	0	0	32.08439031875734	-32.08439031875734	4.432206951120095	77.52636776140845	85.56779329687892	0	0
19.95999999999966	-2.048406560279271	2.700815019324131	-54.67025937117002	0	0.9399999999999999	0	8.061314494151299	3.270582602973203	4.272474108606961	12.63343867644746	0.2204951007528028	0	0	0	10.6415836495931	-1.862128152697553	6.720174470040954	25.66384396297867	0.4479185758720475	0	0	0	0	0	0	32.17776854728909	-32.17776854728909	4.439331464374521	77.6204641498949	85.56066878408592	0	0	32.17776854728909	-32.17776854728909	4.439331464374521	77.6204641498949	85.56066878398083	0	0
19.97999999999966	-1.837151103584754	2.746984273754941	-57.58031343464068	0	0.9399999999999999	0	8.517482473635898	3.008830176433202	4.873484553796789	13.32441313827231	0.2325548801588422	0	0	0	9.90978905073035	-1.850351604078074	5.797681120666225	25.06578330753755	0.4374804483079646	0	0	0	0	0	0	32.21356011951949	-32.21356011951949	4.442011594268198	77.65584843950603	85.55798865432538	0	0	32.21356011951949	-32.21356011951949	4.442011594268198	77.65584843950603	85.55798865422078	0	0
19.99999999999966	-1.720761836206081	2.781097925357663	-58.97124540376957	0	0.9399999999999999	0	9.113233274219549	2.626616635869115	3.861383536231604	14.18834091956381	0.2476332644418284	0	0	0	9.157656286836717	-1.539322192236949	6.215701208235105	24.26399132032673	0.4234865382150275	0	0	0	0	0	0	32.2393845493038	-32.2393845493038	4.443946201176834	77.68139015456862	85.55605404751287	0	0	32.2393845493038	-32.2393845493038	4.443946201176834	77.68139015456862	85.55605404740861	0	0
20.01999999999966	-1.450598201273102	2.843016821813989	-61.69650899855187	0	0.9399999999999999	0	9.632808552934321	2.383415269694902	4.34076238648558	15.0504250447087	0.2626794708547815	0	0	0	8.289037364178764	-1.216405238955035	5.380057385688189	23.38460497961095	0.4081383511724725	0	0	0	0	0	0	32.27421776736748	-32.27421776736748	4.446548425420682	77.71574400823052	85.55345182339823	0	0	32.27421776736748	-32.27421776736748	4.446548425420682	77.71574400823052	85.55345182329451	0	0
20.03999999999966	-1.104964564588398	2.923526702817754	-64.24189105216026	0	0.9399999999999999	0	10.11044848309156	1.801540957154122	4.377264167545498	15.58524296004776	0.2720138043761006	0	0	0	7.389241319355474	-0.7911144888675311	4.455374795406866	22.46670069198385	0.3921178991352065	0	0	0	0	0	0	32.3102361086987	-32.3102361086987	4.449273150531081	77.7517236214895	85.55072709842338	0	0	32.3102361086987	-32.3102361086987	4.449273150531081	77.7517236214895	85.55072709832018	0	0
20.05999999999966	-0.2961022336233867	3.035596122292584	-69.03053401739149	0	0.9399999999999999	0	10.96274539080893	0.578501833463929	4.521650690445166	16.28370147008997	0.2842042050649109	0	0	0	7.175602342862036	-0.5315153139659329	-0.2493333148750795	22.59949148371994	0.3944355356673314	0	0	0	0	0	0	32.36363286903035	-32.36363286903035	4.453294233055425	77.80481595983881	85.54670601609897	0	0	32.36363286903035	-32.36363286903035	4.453294233055425	77.80481595983881	85.54670601599651	0	0
20.07999999999966	0.08891173289244331	3.031996436362899	-71.26451507522268	0	0.9399999999999999	0	10.712061300348	0.4003745002840616	6.21996125724939	15.57425534301157	0.2718220342818708	0	0	0	6.474298692971056	0.04099654578283492	-0.7799913752213808	21.97071966847948	0.383461397247644	0	0	0	0	0	0	32.36651845561278	-32.36651845561278	4.453543596292679	77.80811652048635	85.54645665287443	0	0	32.36651845561278	-32.36651845561278	4.453543596292679	77.80811652048635	85.54645665277198	0	0
20.09999999999966	0.2579956414716384	3.055764579252168	-72.37443438726946	0	0.9399999999999999	0	10.6120193325802	0.199368394773122	6.762120871128909	14.53407243234846	0.2536674176678215	0	0	0	6.221592774017756	0.5028657967949097	0.3716800423844216	21.62737583447625	0.3774689168778667	0	0	0	0	0	0	32.38266182692046	-32.38266182692046	4.454782517498238	77.82448039517129	85.54521773173057	0	0	32.38266182692046	-32.38266182692046	4.454782517498238	77.82448039517129	85.54521773162844	0	0
20.11999999999966	0.6082507427759903	3.248156460372396	-75.61977045580444	0	0.9399999999999999	0	11.48702679248581	-1.001935831372896	5.082559924410391	13.04112934412431	0.2276106452334178	0	0	0	6.351886793735336	0.8859651763907536	-0.3619875829922244	21.16844758428502	0.3694591078816135	0	0	0	0	0	0	32.4132252237434	-32.4132252237434	4.457081615344036	77.85483557541538	85.54291863399905	0	0	32.4132252237434	-32.4132252237434	4.457081615344036	77.85483557541538	85.54291863389737	0	0
20.13999999999966	0.6793490708423888	3.370036899492047	-76.68712649084841	0	0.9399999999999999	0	11.54063467828896	-1.033512252288945	5.668515957878855	11.93895068217209	0.2083739986371261	0	0	0	6.007315955856019	1.580706254164675	2.671121713694092	19.8994817224201	0.3473114754966631	0	0	0	0	0	0	32.43297181055946	-32.43297181055946	4.45861370737875	77.87507524087599	85.54138654204091	0	0	32.43297181055946	-32.43297181055946	4.45861370737875	77.87507524087599	85.5413865419395	0	0
20.15999999999966	0.7898924178591591	3.627281304275559	-78.75329012300851	0	0.9399999999999999	0	12.3780210512691	-1.91556911760142	3.59745505183837	11.64683479296823	0.2032756145731278	0	0	0	5.796895555041884	1.956453681557019	2.216352827977853	18.74654307268279	0.3271888999852493	0	0	0	0	0	0	32.46139661212964	-32.46139661212964	4.460751403730425	77.90329891622221	85.53924884579544	0	0	32.46139661212964	-32.46139661212964	4.460751403730425	77.90329891622221	85.53924884569446	0	0
20.17999999999966	0.8478690054829068	3.905895883555047	-80.92838902838805	0	0.9399999999999999	0	12.85744696458114	-1.995746507086739	3.740481780895904	11.33872585053977	0.1978980990729134	0	0	0	5.699995798799841	2.20909689524703	1.704398709168693	17.8038034393817	0.3107349893951014	0	0	0	0	0	0	32.48914786140703	-32.48914786140703	4.462808915538247	77.9304566750846	85.53719133408964	0	0	32.48914786140703	-32.48914786140703	4.462808915538247	77.9304566750846	85.53719133398899	0	0
20.19999999999966	0.8874173212029189	4.142775213113952	-83.00736223119874	0	0.9399999999999999	0	13.1379413561793	-1.962997121412778	3.301463212682418	10.89485245114558	0.1901510467914651	0	0	0	5.727212770454697	2.45496947663226	1.156116331902887	17.00748491187774	0.2968366091955242	0	0	0	0	0	0	32.51489441780741	-32.51489441780741	4.464706341573956	77.95549850601451	85.53529390814793	0	0	32.51489441780741	-32.51489441780741	4.464706341573956	77.95549850601451	85.53529390804761	0	0
20.21999999999966	0.845419860086061	4.270984024118084	-84.98355725217469	0	0.9399999999999999	0	13.24180883488912	-1.558919115634436	2.428403075444508	10.71805167212425	0.1870652910774519	0	0	0	5.76280054646586	2.569186182648473	0.8705320745042635	16.44697547808376	0.2870538740873302	0	0	0	0	0	0	32.5402158939108	-32.5402158939108	4.466567212295137	77.98005652669912	85.53343303751886	0	0	32.5402158939108	-32.5402158939108	4.466567212295137	77.98005652669912	85.53343303741887	0	0
